# xmcd CD database file
#
# Track frame offsets:
#	150
#	33269
#	66763
#	102723
#	123992
#	148883
#	154721
#	182074
#	205763
#	225698
#	260589
#
# Disc length: 3739 seconds
#
# Revision: 0
# Processed by: cddbd v1.5.2PL0 Copyright (c) Steve Scherf et al.
# Submitted via: CDex 1.51
#
DISCID=9e0e990b
DTITLE=Chris Laurence Quartet - New View
DYEAR=2007
DGENRE=Jazz
TTITLE0=Falling Grace
TTITLE1=Scrim 
TTITLE2=Jack Stix
TTITLE3=Where Do We Go From Here?
TTITLE4=Canto
TTITLE5=Mintro
TTITLE6=Chappaqua 
TTITLE7=Going for a Burton
TTITLE8=Sly Eyes
TTITLE9=Last Chance Lost
TTITLE10=Between Moons
EXTD=YEAR: 2007
EXTT0=
EXTT1=
EXTT2=
EXTT3=
EXTT4=
EXTT5=
EXTT6=
EXTT7=
EXTT8=
EXTT9=
EXTT10=
PLAYORDER=
